<svg version="1.1" baseProfile="full" width="64" height="64" xmlns="http://www.w3.org/2000/svg">
  <!-- this's lonr's avatar -->
  <!-- this Robot 🤖 comes from K.O.L.M. -->
  <rect width="100%" height="100%" fill="#0A659E" />
  <!-- #3b84b2 -->
  <path d="M 0 0 V 34 A 16 16 0 0 1 13.2 28 H 60 A 4 4 0 0 1 64 32 V 0 Z" fill="#fff" fill-opacity="0.2" />
  <rect x="14" y="0" width="36" height="36" fill="#FFF" />
  <rect x="14" y="35.8" width="28" height="16.2" fill="#FFF" />
  <rect x="18" y="51.8" width="4" height="4.4" fill="#FFF" />
  <rect x="34" y="51.8" width="4" height="4.4" fill="#FFF" />
  <rect x="18" y="4" width="28" height="28" fill="#000" />
  <rect x="18" y="36" width="20" height="12" fill="#000" />
  <rect x="22" y="20" width="8" height="8" fill="#FFF" />
  <rect x="34" y="20" width="8" height="8" fill="#FFF" />
  <polygon points="17, 56 23, 56 22, 60 26, 60 26, 64 18, 64" fill="#F59A61" />
  <polygon points="33, 56 39, 56 38, 60 42, 60 42, 64 34, 64" fill="#F59A61" />
</svg>
